<mxfile host="app.diagrams.net" modified="2021-10-24T13:22:35.609Z" agent="5.0 (Windows NT 10.0; Win64; x64) AppleWebKit/537.36 (KHTML, like Gecko) Chrome/95.0.4638.54 Safari/537.36" etag="NpTgo3i619mWi8zPVmWC" version="15.5.5" type="github">
  <diagram id="CtClA4N6S6cBcb25WfkH" name="Page-1">
    <mxGraphModel dx="1209" dy="652" grid="1" gridSize="10" guides="1" tooltips="1" connect="1" arrows="1" fold="1" page="1" pageScale="1" pageWidth="827" pageHeight="1169" math="0" shadow="0">
      <root>
        <mxCell id="0" />
        <mxCell id="1" parent="0" />
        <mxCell id="KCKPMaRAL0ZYV2De1T00-1" value="" style="fontColor=#0066CC;verticalAlign=top;verticalLabelPosition=bottom;labelPosition=center;align=center;html=1;outlineConnect=0;fillColor=#CCCCCC;strokeColor=#6881B3;gradientColor=none;gradientDirection=north;strokeWidth=2;shape=mxgraph.networks.mobile;" vertex="1" parent="1">
          <mxGeometry x="170" y="60" width="40" height="70" as="geometry" />
        </mxCell>
        <mxCell id="KCKPMaRAL0ZYV2De1T00-2" value="" style="fontColor=#0066CC;verticalAlign=top;verticalLabelPosition=bottom;labelPosition=center;align=center;html=1;outlineConnect=0;fillColor=#CCCCCC;strokeColor=#6881B3;gradientColor=none;gradientDirection=north;strokeWidth=2;shape=mxgraph.networks.server;" vertex="1" parent="1">
          <mxGeometry x="490" y="60" width="50" height="70" as="geometry" />
        </mxCell>
        <mxCell id="KCKPMaRAL0ZYV2De1T00-3" value="Client" style="text;html=1;strokeColor=none;fillColor=none;align=center;verticalAlign=middle;whiteSpace=wrap;rounded=0;" vertex="1" parent="1">
          <mxGeometry x="160" y="130" width="60" height="30" as="geometry" />
        </mxCell>
        <mxCell id="KCKPMaRAL0ZYV2De1T00-4" value="Server&amp;nbsp;" style="text;html=1;strokeColor=none;fillColor=none;align=center;verticalAlign=middle;whiteSpace=wrap;rounded=0;" vertex="1" parent="1">
          <mxGeometry x="485" y="130" width="60" height="30" as="geometry" />
        </mxCell>
        <mxCell id="KCKPMaRAL0ZYV2De1T00-5" value="Establish TCP Connection" style="rounded=0;whiteSpace=wrap;html=1;strokeColor=#9673a6;fillColor=#e1d5e7;" vertex="1" parent="1">
          <mxGeometry x="220" y="130" width="260" height="20" as="geometry" />
        </mxCell>
        <mxCell id="KCKPMaRAL0ZYV2De1T00-9" value="" style="endArrow=classic;html=1;rounded=0;" edge="1" parent="1">
          <mxGeometry width="50" height="50" relative="1" as="geometry">
            <mxPoint x="220" y="150" as="sourcePoint" />
            <mxPoint x="480" y="180" as="targetPoint" />
          </mxGeometry>
        </mxCell>
        <mxCell id="KCKPMaRAL0ZYV2De1T00-10" value="" style="endArrow=classic;html=1;rounded=0;entryX=0;entryY=0;entryDx=0;entryDy=0;" edge="1" parent="1">
          <mxGeometry width="50" height="50" relative="1" as="geometry">
            <mxPoint x="480" y="190" as="sourcePoint" />
            <mxPoint x="220" y="220" as="targetPoint" />
          </mxGeometry>
        </mxCell>
        <mxCell id="KCKPMaRAL0ZYV2De1T00-11" value="" style="endArrow=none;html=1;rounded=0;strokeColor=#999999;exitX=0;exitY=1;exitDx=0;exitDy=0;" edge="1" parent="1" source="KCKPMaRAL0ZYV2De1T00-18">
          <mxGeometry width="50" height="50" relative="1" as="geometry">
            <mxPoint x="220" y="440" as="sourcePoint" />
            <mxPoint x="220" y="150" as="targetPoint" />
          </mxGeometry>
        </mxCell>
        <mxCell id="KCKPMaRAL0ZYV2De1T00-12" value="" style="endArrow=none;html=1;rounded=0;strokeColor=#999999;exitX=1;exitY=0.75;exitDx=0;exitDy=0;" edge="1" parent="1" source="KCKPMaRAL0ZYV2De1T00-18">
          <mxGeometry width="50" height="50" relative="1" as="geometry">
            <mxPoint x="480" y="440" as="sourcePoint" />
            <mxPoint x="480" y="150" as="targetPoint" />
          </mxGeometry>
        </mxCell>
        <mxCell id="KCKPMaRAL0ZYV2De1T00-15" value="" style="endArrow=classic;html=1;rounded=0;" edge="1" parent="1">
          <mxGeometry width="50" height="50" relative="1" as="geometry">
            <mxPoint x="220" y="223" as="sourcePoint" />
            <mxPoint x="480" y="253" as="targetPoint" />
          </mxGeometry>
        </mxCell>
        <mxCell id="KCKPMaRAL0ZYV2De1T00-16" value="" style="endArrow=classic;html=1;rounded=0;entryX=0;entryY=0;entryDx=0;entryDy=0;" edge="1" parent="1">
          <mxGeometry width="50" height="50" relative="1" as="geometry">
            <mxPoint x="480" y="263" as="sourcePoint" />
            <mxPoint x="220" y="293" as="targetPoint" />
          </mxGeometry>
        </mxCell>
        <mxCell id="KCKPMaRAL0ZYV2De1T00-18" value="Close TCP Connection" style="rounded=0;whiteSpace=wrap;html=1;strokeColor=#82b366;fillColor=#d5e8d4;" vertex="1" parent="1">
          <mxGeometry x="220" y="370" width="260" height="20" as="geometry" />
        </mxCell>
        <mxCell id="KCKPMaRAL0ZYV2De1T00-19" value="" style="endArrow=classic;html=1;rounded=0;" edge="1" parent="1">
          <mxGeometry width="50" height="50" relative="1" as="geometry">
            <mxPoint x="220" y="296" as="sourcePoint" />
            <mxPoint x="480" y="326" as="targetPoint" />
          </mxGeometry>
        </mxCell>
        <mxCell id="KCKPMaRAL0ZYV2De1T00-20" value="" style="endArrow=classic;html=1;rounded=0;entryX=0;entryY=0;entryDx=0;entryDy=0;" edge="1" parent="1">
          <mxGeometry width="50" height="50" relative="1" as="geometry">
            <mxPoint x="480" y="336" as="sourcePoint" />
            <mxPoint x="220" y="366" as="targetPoint" />
          </mxGeometry>
        </mxCell>
        <mxCell id="KCKPMaRAL0ZYV2De1T00-21" value="persistent connection&amp;nbsp;" style="text;html=1;strokeColor=none;fillColor=none;align=center;verticalAlign=middle;whiteSpace=wrap;rounded=0;" vertex="1" parent="1">
          <mxGeometry x="285" y="410" width="130" height="30" as="geometry" />
        </mxCell>
      </root>
    </mxGraphModel>
  </diagram>
</mxfile>
